<svg enable-background="new 0 0 40 40" version="1.1" viewBox="0 0 40 40" xml:space="preserve" xmlns="http://www.w3.org/2000/svg" xmlns:xlink="http://www.w3.org/1999/xlink">
<g id="E-Com">
<path clip-rule="evenodd" d="M33,10c0-1.7-1.3-3-3-3H11c-1.7,0-3,1.3-3,3v19c0,1.7,1.3,3,3,3  h19c1.7,0,3-1.3,3-3V10z" fill="#2C3E50" fill-rule="evenodd"/>
</g>
<g id="Square_Payment_2_">
<path clip-rule="evenodd" d="M29,13c0-1.1-0.9-2-2-2H14c-1.1,0-2,0.9-2,2v13c0,1.1,0.9,2,2,2     h13c1.1,0,2-0.9,2-2V13z" fill="#ECF0F1" fill-rule="evenodd"/>
</g>
<g id="Square_Payment">
<path clip-rule="evenodd" d="M25,16c0-0.6-0.4-1-1-1h-7c-0.6,0-1,0.4-1,1v7c0,0.6,0.4,1,1,1     h7c0.6,0,1-0.4,1-1V16z" fill="#2C3E50" fill-rule="evenodd"/>
</g>

</svg>
