<svg  version="1.1" viewBox="10 2 40 50" height="80px" width="80px" xmlns="http://www.w3.org/2000/svg" xmlns:xlink="http://www.w3.org/1999/xlink">

<g fill="none" fill-rule="evenodd" id="Page-1" stroke="none" stroke-width="1">
<g fill-rule="nonzero" id="015---Mute">
<g id="Icons" stroke="#8a91ff" transform="translate(1.000000, 1.000000)">
<path d="M16,25 L20,25 L20,33 L16,33 C14.8954305,33 14,32.1045695 14,31 L14,27 C14,25.8954305 14.8954305,25 16,25 Z" fill="#b52a80" id="Shape"/>

<path d="M29.78058,17.47644 L20,25 L20,33 L29.78058,40.5235 C30.3845142,40.9880638 31.1999488,41.0691137 31.8835137,40.7325205 C32.5670787,40.3959272 33.0000079,39.7001723 33,38.93823 L33,19.06171 C33.0000079,18.2997677 32.5670787,17.6040128 31.8835137,17.2674195 C31.1999488,16.9308263 30.3845142,17.0118762 29.78058,17.47644 Z" fill="#b52a80" id="Shape"/>
</g>

<g fill="#8a91ff" id="Layer_12">
<path d="M44,35 C43.7347342,35.0003006 43.4802902,34.8948521 43.293,34.707 L37.293,28.707 C36.908547,28.3155191 36.9113917,27.6873575 37.2993746,27.2993746 C37.6873575,26.9113917 38.3155191,26.908547 38.707,27.293 L44.707,33.293 C44.9929079,33.5789943 45.0784219,34.0090366 44.923678,34.3826546 C44.7689341,34.7562725 44.4043959,34.9999137 44,35 Z" id="Shape"/>

<path d="M38,35 C37.5956041,34.9999137 37.2310659,34.7562725 37.076322,34.3826546 C36.9215781,34.0090366 37.0070921,33.5789943 37.293,33.293 L43.293,27.293 C43.5448109,27.0365859 43.9148595,26.9350329 44.2622771,27.0269999 C44.6096948,27.1189669 44.8810331,27.3903052 44.9730001,27.7377229 C45.0649671,28.0851405 44.9634141,28.4551891 44.707,28.707 L38.707,34.707 C38.5197098,34.8948521 38.2652658,35.0003006 38,35 Z" id="Shape"/>


</g></g></g></svg>