<svg  version="1.1" viewBox="10 2 40 50" height="80px" width="80px" xmlns="http://www.w3.org/2000/svg" xmlns:xlink="http://www.w3.org/1999/xlink">

<g fill="none" fill-rule="evenodd" id="Page-1" stroke="none" stroke-width="1">
<g fill-rule="#8a91ff" id="014---Volume">
<g id="Icons" stroke="#8a91ff" transform="translate(1.000000, 1.000000)">


<path d="M16,25 L20,25 L20,33 L16,33 C14.8954305,33 14,32.1045695 14,31 L14,27 C14,25.8954305 14.8954305,25 16,25 Z" fill="#b52a80" id="Shape"/>

<path d="M29.78058,17.47644 L20,25 L20,33 L29.78058,40.5235 C30.3845142,40.9880638 31.1999488,41.0691137 31.8835137,40.7325205 C32.5670787,40.3959272 33.0000079,39.7001723 33,38.93823 L33,19.06171 C33.0000079,18.2997677 32.5670787,17.6040128 31.8835137,17.2674195 C31.1999488,16.9308263 30.3845142,17.0118762 29.78058,17.47644 Z" fill="#b52a80" id="Shape"/>
</g>
<g fill="#8a91ff" id="Layer_12">
<path d="M38,40 C37.4477153,40 37,39.5522847 37,39 C37,38.4477153 37.4477153,38 38,38 C41.8659932,37.9999999 44.9999999,34.8659932 44.9999999,31 C44.9999999,27.1340068 41.8659932,24.0000001 38,24 C37.4477153,24 37,23.5522847 37,23 C37,22.4477153 37.4477153,22 38,22 C42.9705627,22 47,26.0294373 47,31 C47,35.9705627 42.9705627,40 38,40 Z" id="Shape"/>

<path d="M38,36 C37.4477153,36 37,35.5522847 37,35 C37,34.4477153 37.4477153,34 38,34 C39.6568542,34 41,32.6568542 41,31 C41,29.3431458 39.6568542,28 38,28 C37.4477153,28 37,27.5522847 37,27 C37,26.4477153 37.4477153,26 38,26 C40.7614237,26 43,28.2385763 43,31 C43,33.7614237 40.7614237,36 38,36 Z" id="Shape"/>

</g></g></g></svg>
